<?xml version="1.0" encoding="UTF-8"?>
<svg id="Layer_2" data-name="Layer 2" xmlns="http://www.w3.org/2000/svg" viewBox="0 0 67.11 48.6">
  <defs>
    <style>
      .cls-1 {
        fill: #fff;
      }

      .cls-2 {
        fill: #1d1d1b;
      }
    </style>
 </defs>
  <g id="Layer_1-2" data-name="Layer 1">
    <g>
      <g id="Eh6eBD.tif">
        <g>
          <path class="cls-2" d="m.04,35.52h0c0,3.24,0,6.47,0,9.71,0,.32,0,.64.04.96.04.4.16.78.41,1.11.31.39.7.67,1.18.8.41.11.83.21,1.26.29.67.13,1.35.21,2.04.21.61,0,1.23,0,1.84,0,.71,0,1.41-.07,2.1-.19.31-.05.61-.12.92-.17.45-.08.87-.23,1.25-.48.22-.14.39-.32.53-.54.17-.27.27-.56.33-.87.06-.36.09-.72.09-1.09.02-6.2-.04-12.41.03-18.61,0-.82,0-1.63,0-2.45,0-.1,0-.21-.02-.31-.04-.47-.11-.93-.23-1.39-.18-.73-.48-1.39-.91-2-.2-.28-.43-.54-.64-.81-.19-.25-.38-.51-.56-.77-.03-.05-.05-.11-.05-.17-.04-.32-.14-.63-.05-.95-.02-.81.03-1.63-.04-2.44-.07-.73-.02-1.46-.11-2.19-.07-.61-.11-1.23-.17-1.85-.02-.17-.06-.33-.08-.5-.06-.55-.11-1.1-.18-1.65-.09-.68-.21-1.36-.31-2.05-.1-.68-.3-1.35-.35-2.04-.04-.48-.09-.96-.13-1.44-.01-.18,0-.37,0-.55,0-.46.02-.93.02-1.39,0-.16-.03-.33-.07-.48-.1-.41-.36-.68-.76-.79-.19-.05-.38-.08-.58-.1-.71-.08-1.42-.04-2.13-.03-.06,0-.12.01-.18.02-.48.07-.69.28-.73.77,0,.03,0,.07,0,.1-.01.53-.02,1.07-.03,1.6,0,.1.01.2.01.29,0,.2.02.39.01.59-.03.45-.06.9-.11,1.34-.06.51-.15,1.02-.23,1.53-.06.33-.13.66-.19,1-.05.3-.08.61-.13.91-.04.23-.1.46-.13.69-.11.8-.21,1.6-.3,2.41-.06.58-.11,1.16-.15,1.73-.05.74-.08,1.48-.1,2.23-.02.85,0,1.71-.01,2.56,0,.25-.06.49-.09.74,0,.05-.04.1-.06.14-.09.14-.18.29-.28.42-.11.16-.22.33-.35.47-.37.41-.69.85-.96,1.33C.21,21.99.03,22.91,0,23.86c-.01.5.03,1,.03,1.5,0,3.39,0,6.77,0,10.16Z"/>
          <path d="m.04,34.52c0-3.32,0-6.63,0-9.95,0-.49-.04-.98-.03-1.47.02-.93.21-1.83.68-2.65.27-.47.59-.9.96-1.3.13-.14.24-.3.35-.46.1-.14.19-.28.28-.42.03-.04.06-.09.06-.14.04-.24.09-.48.09-.72.01-.84,0-1.67.01-2.51.02-.73.05-1.45.1-2.18.04-.57.08-1.13.15-1.7.09-.79.2-1.57.3-2.36.03-.23.09-.45.13-.68.05-.3.08-.59.13-.89.06-.33.13-.65.19-.98.09-.5.17-.99.23-1.49.05-.44.08-.88.11-1.32.01-.19,0-.38-.01-.57,0-.1-.02-.19-.01-.29,0-.52.02-1.05.03-1.57,0-.03,0-.06,0-.1.05-.47.25-.68.73-.75.06,0,.12-.02.18-.02.71-.01,1.42-.05,2.13.03.19.02.39.05.58.1.41.11.66.37.76.77.04.15.07.31.07.47,0,.45,0,.91-.02,1.36,0,.18-.02.36,0,.54.04.47.09.94.13,1.41.05.68.25,1.33.35,2,.1.67.22,1.34.31,2.01.07.54.12,1.08.18,1.62.02.16.06.33.08.49.06.6.09,1.21.17,1.81.09.71.04,1.43.11,2.14.07.8.02,1.6.04,2.39-.08.32.02.62.05.93,0,.06.02.12.05.16.18.26.37.51.56.76.21.27.45.52.64.79.43.6.73,1.25.91,1.96.11.45.18.9.23,1.36,0,.1.02.2.02.31,0,.8.01,1.6,0,2.4-.07,6.08,0,12.15-.03,18.23,0,.36-.03.71-.09,1.07-.05.31-.16.59-.33.86-.13.22-.31.39-.53.53-.38.25-.8.4-1.25.47-.31.05-.61.12-.92.17-.7.12-1.4.19-2.1.19-.61,0-1.23,0-1.84,0-.69,0-1.37-.09-2.04-.21-.42-.08-.84-.17-1.26-.28-.48-.13-.87-.4-1.18-.78-.25-.32-.37-.69-.41-1.08-.03-.31-.04-.62-.04-.94,0-3.17,0-6.34,0-9.51h0Z"/>
        </g>
      </g>
      <g>
        <path class="cls-2" d="m22.16,16.21c-.53,0-1.06-.1-1.57-.3-.52-.2-.94-.47-1.27-.83h-.04v5.74h-4.68V5.18h4.43v1.08h.04c.39-.45.87-.79,1.43-1.02.56-.23,1.1-.35,1.63-.35.8,0,1.51.16,2.13.49.61.33,1.12.76,1.53,1.29.41.53.72,1.13.93,1.8.21.67.32,1.35.32,2.04s-.11,1.4-.32,2.08c-.21.68-.52,1.29-.93,1.83-.41.54-.92.97-1.52,1.3-.61.33-1.31.49-2.11.49Zm.51-5.7c0-.48-.15-.89-.45-1.25-.3-.35-.74-.53-1.31-.53s-1,.18-1.34.53c-.33.35-.5.77-.5,1.25,0,.5.17.93.5,1.29.33.35.78.53,1.34.53s1.01-.17,1.31-.52c.3-.35.45-.78.45-1.3Z"/>
        <path class="cls-2" d="m40.16,15.93h-4.6v-1.19h-.04c-.27.4-.68.74-1.22,1.03-.54.29-1.15.44-1.85.44-.76,0-1.39-.13-1.88-.4-.49-.27-.88-.61-1.18-1.04-.29-.43-.5-.91-.61-1.45-.12-.54-.17-1.07-.17-1.6v-6.54h4.72v5.68c0,.55.09.93.26,1.14.17.22.43.33.77.33.32,0,.57-.13.77-.38s.3-.62.3-1.09v-5.68h4.72v10.75Z"/>
        <path class="cls-2" d="m54.78,10.51c0,.71-.11,1.4-.32,2.08-.21.68-.52,1.29-.93,1.83-.41.54-.92.97-1.53,1.3-.61.33-1.32.49-2.12.49-.67,0-1.3-.13-1.9-.38s-1.05-.6-1.37-1.03h-.04v1.12h-4.25V.48h4.72v5.56h.04c.31-.37.73-.65,1.24-.85.52-.2,1.03-.3,1.55-.3.8,0,1.51.16,2.12.49.61.33,1.12.76,1.53,1.29.41.53.72,1.13.93,1.8.21.67.32,1.35.32,2.04Zm-4.37,0c0-.48-.15-.89-.45-1.25-.3-.35-.74-.53-1.31-.53s-1,.18-1.34.53c-.33.35-.5.77-.5,1.25,0,.5.17.93.5,1.29.33.35.78.53,1.34.53s1.01-.17,1.31-.52c.3-.35.45-.78.45-1.3Z"/>
        <path class="cls-2" d="m14.59,21.42h4.7v8.85h-4.65l-.05-8.85Z"/>
        <path class="cls-2" d="m27.55,30.27v-4.83c0-.25-.02-.49-.06-.71-.04-.22-.11-.42-.2-.6-.09-.17-.23-.31-.4-.41-.17-.1-.39-.15-.65-.15s-.49.05-.68.15c-.2.1-.36.24-.49.42-.13.18-.23.38-.29.61-.07.23-.1.47-.1.72v4.8h-2.93v-8.85h2.83v1.23h.04c.11-.19.25-.38.42-.56.17-.18.37-.34.6-.47.23-.13.48-.24.76-.32.27-.08.56-.12.87-.12.59,0,1.1.11,1.51.32.41.21.75.49,1,.83.25.34.44.73.55,1.16.11.44.17.88.17,1.31v5.47h-2.93Z"/>
        <path class="cls-2" d="m38.06,30.27h-3.14l-3.48-8.85h3.22l1.87,5.74h.05l1.87-5.74h3.11l-3.48,8.85Z"/>
        <path class="cls-2" d="m51.33,25.95v.36c0,.12,0,.23-.02.34h-6.41c.02.25.1.47.22.67.12.2.28.38.48.52.19.15.41.26.66.35s.49.12.76.12c.46,0,.85-.09,1.17-.26.32-.17.58-.39.78-.67l2.03,1.28c-.41.6-.96,1.07-1.64,1.39-.68.33-1.47.49-2.37.49-.66,0-1.29-.1-1.88-.31s-1.11-.51-1.55-.91c-.44-.4-.79-.89-1.05-1.47-.26-.58-.38-1.24-.38-1.99s.12-1.38.37-1.96c.25-.59.59-1.08,1.01-1.49.43-.41.93-.73,1.51-.95.58-.22,1.21-.34,1.88-.34s1.25.11,1.79.33c.54.22,1.01.54,1.4.95.39.41.7.92.91,1.51s.33,1.27.33,2.03Zm-2.68-1.12c0-.46-.15-.86-.44-1.19-.29-.33-.73-.5-1.31-.5-.28,0-.54.04-.78.13-.24.09-.44.21-.62.36-.18.15-.32.33-.43.54-.11.21-.17.42-.18.65h3.75Z"/>
        <path class="cls-2" d="m58.25,24.03c-.24-.22-.52-.41-.84-.57-.32-.15-.66-.23-1.01-.23-.27,0-.52.05-.75.16-.23.11-.35.29-.35.55s.13.43.38.53c.25.11.67.23,1.23.36.33.07.67.17,1,.3.34.13.64.3.91.52.27.21.49.47.66.78.17.31.25.68.25,1.1,0,.56-.11,1.03-.34,1.41-.22.39-.52.7-.88.93-.36.24-.77.41-1.22.52-.45.11-.9.16-1.35.16-.72,0-1.43-.12-2.12-.35-.69-.23-1.27-.57-1.73-1.02l1.63-1.72c.26.28.58.52.96.71.38.19.78.28,1.21.28.24,0,.47-.06.7-.17.23-.11.35-.31.35-.6s-.14-.47-.43-.6c-.28-.13-.73-.27-1.33-.41-.31-.07-.62-.17-.92-.28-.31-.12-.58-.28-.83-.48s-.44-.45-.6-.75c-.15-.3-.23-.65-.23-1.07,0-.53.11-.99.34-1.36s.52-.68.87-.91c.36-.24.75-.41,1.18-.52.43-.11.86-.17,1.29-.17.66,0,1.31.1,1.95.31.63.21,1.17.52,1.61.93l-1.6,1.65Z"/>
        <path class="cls-2" d="m64.49,23.59v3.39c0,.42.08.73.24.94.16.21.45.31.86.31.14,0,.29-.01.45-.04.16-.02.29-.06.4-.11l.04,2.13c-.2.07-.46.13-.76.19-.31.05-.62.08-.92.08-.59,0-1.09-.07-1.49-.22-.4-.15-.73-.36-.97-.64-.24-.28-.42-.61-.52-1-.11-.39-.16-.82-.16-1.29v-3.74h-1.42v-2.17h1.4v-2.33h2.86v2.33h2.08v2.17h-2.08Z"/>
        <path class="cls-2" d="m15.72,43.55c.36.46.85.85,1.47,1.17.62.32,1.27.48,1.96.48.64,0,1.18-.09,1.63-.28s.81-.44,1.08-.76c.27-.32.48-.69.6-1.12.13-.43.19-.89.19-1.37v-1.69h-.04c-.34.56-.83,1-1.47,1.3-.63.31-1.27.46-1.93.46-.7,0-1.34-.11-1.91-.34-.57-.23-1.05-.55-1.46-.95-.4-.4-.72-.88-.94-1.45-.22-.56-.34-1.17-.34-1.82s.11-1.24.34-1.8c.22-.56.54-1.05.94-1.48.4-.42.89-.75,1.46-1,.57-.24,1.2-.36,1.91-.36.65,0,1.29.15,1.92.46.63.31,1.12.75,1.48,1.32h.04v-1.55h1.3v8.89c0,.49-.07,1-.2,1.55-.13.55-.38,1.05-.75,1.51-.36.46-.86.84-1.48,1.15-.63.31-1.44.46-2.43.46-.83,0-1.62-.16-2.38-.48-.75-.32-1.4-.76-1.93-1.32l.94-1Zm.25-6.4c0,.47.08.92.23,1.34.15.42.37.79.66,1.11.29.32.64.57,1.06.76.42.19.9.28,1.44.28.5,0,.96-.08,1.38-.25.42-.17.79-.4,1.09-.71.31-.31.55-.67.72-1.1.17-.43.26-.9.26-1.43,0-.47-.09-.92-.26-1.34-.17-.42-.41-.79-.72-1.11-.31-.32-.67-.58-1.09-.77-.42-.19-.88-.29-1.38-.29-.54,0-1.02.1-1.44.29-.42.19-.78.45-1.06.77-.29.32-.51.69-.66,1.11s-.23.87-.23,1.34Z"/>
        <path class="cls-2" d="m28.54,33.81c-.01-.38-.03-.73-.06-1.03h1.25c.03.24.04.51.06.8.01.29.02.54.02.73h.04c.26-.52.64-.95,1.15-1.27s1.09-.49,1.72-.49c.17,0,.32,0,.45.02.13.01.27.04.41.08l-.17,1.25c-.08-.03-.2-.05-.38-.08-.18-.03-.36-.04-.54-.04-.34,0-.68.06-1,.19-.32.13-.6.33-.83.6-.24.27-.43.62-.58,1.05-.15.43-.22.94-.22,1.54v4.59h-1.3v-6.99c0-.24,0-.56-.02-.94Z"/>
        <path class="cls-2" d="m43.95,37.26c0,.68-.12,1.3-.35,1.88s-.57,1.07-.99,1.49-.93.75-1.51.99c-.59.24-1.23.35-1.93.35s-1.33-.12-1.92-.35c-.59-.24-1.09-.57-1.51-.99s-.75-.92-.99-1.49c-.24-.58-.35-1.2-.35-1.88s.12-1.3.35-1.88c.24-.58.57-1.07.99-1.49s.93-.75,1.51-.99c.59-.24,1.23-.35,1.92-.35s1.35.12,1.93.35,1.09.57,1.51.99.75.92.99,1.49.35,1.2.35,1.88Zm-1.38,0c0-.5-.08-.97-.24-1.41-.16-.44-.39-.82-.68-1.15-.29-.33-.65-.58-1.07-.78s-.89-.29-1.42-.29-.99.1-1.41.29c-.42.19-.77.45-1.06.78-.29.33-.52.71-.68,1.15-.16.44-.24.91-.24,1.41s.08.97.24,1.41c.16.44.39.82.68,1.15.29.33.65.58,1.06.77.41.19.88.28,1.41.28s1-.09,1.42-.28c.42-.18.78-.44,1.07-.77.29-.33.52-.71.68-1.15.16-.44.24-.91.24-1.41Z"/>
        <path class="cls-2" d="m53.19,41.74c-.03-.24-.04-.51-.06-.8-.01-.29-.02-.54-.02-.73h-.04c-.26.52-.67.95-1.25,1.27-.57.33-1.18.49-1.82.49-1.14,0-1.99-.34-2.56-1.02-.57-.68-.85-1.57-.85-2.68v-5.5h1.3v4.96c0,.47.04.9.11,1.28.08.38.21.71.39.99s.43.49.75.64.71.23,1.18.23c.34,0,.68-.07,1.01-.21s.62-.35.87-.64c.26-.29.46-.65.61-1.09.15-.44.23-.96.23-1.56v-4.6h1.3v6.99c0,.24,0,.56.02.94.01.38.03.73.06,1.03h-1.24Z"/>
        <path class="cls-2" d="m59.04,46.34h-1.3v-13.57h1.3v1.55h.06c.37-.59.87-1.03,1.48-1.33.62-.3,1.25-.45,1.89-.45.7,0,1.34.12,1.91.36s1.05.58,1.46,1c.4.42.72.92.94,1.49.22.57.34,1.19.34,1.86s-.11,1.28-.34,1.86c-.22.58-.54,1.07-.94,1.49-.4.42-.89.75-1.46,1s-1.2.36-1.91.36c-.64,0-1.27-.15-1.89-.45-.62-.3-1.11-.73-1.48-1.29h-.06v6.11Zm6.69-9.08c0-.5-.08-.97-.23-1.41-.15-.44-.37-.82-.66-1.15-.29-.33-.64-.58-1.06-.78-.42-.19-.9-.29-1.44-.29-.5,0-.96.09-1.38.28s-.79.44-1.09.77c-.31.33-.55.71-.72,1.15-.17.44-.26.92-.26,1.43s.09.99.26,1.43c.17.44.41.82.72,1.14.31.32.67.57,1.09.76.42.19.88.28,1.38.28.54,0,1.02-.09,1.44-.28.42-.18.78-.44,1.06-.77.29-.33.51-.71.66-1.15.15-.44.23-.91.23-1.41Z"/>
      </g>
      <path class="cls-1" d="m15.48,18.58c0-.2.04-.38.12-.55.08-.17.18-.33.32-.46.13-.13.29-.23.47-.31.18-.08.37-.12.57-.12s.38.04.55.12c.17.08.32.18.46.31.13.13.24.28.32.46.08.17.12.36.12.55s-.04.39-.12.57c-.08.17-.18.33-.32.45-.13.13-.29.23-.46.3-.17.07-.35.11-.55.11s-.39-.04-.57-.11c-.18-.07-.34-.17-.47-.3-.13-.13-.24-.28-.32-.45-.08-.17-.12-.36-.12-.57Z"/>
    </g>
  </g>
</svg>
